<?xml version="1.0" encoding="UTF-8"?>
<svg id="a" data-name="Camada 1" xmlns="http://www.w3.org/2000/svg" viewBox="0 0 256.26 113.64">
  <defs>
    <style>
      .b {
        font-size: 59.22px;
      }

      .b, .c {
        fill: #ffbd4a;
        font-family: MyriadPro-Bold, 'Myriad Pro';
        font-weight: 700;
      }

      .d {
        fill: #000;
      }

      .d, .e, .f {
        stroke-width: 0px;
      }

      .g {
        letter-spacing: 0em;
      }

      .e {
        fill: #363636;
      }

      .c {
        font-size: 62.23px;
      }

      .f {
        fill: #00983a;
      }

      .h {
        letter-spacing: 0em;
      }

      .i {
        letter-spacing: 0em;
      }
    </style>
  </defs>
  <text class="c" transform="translate(114.34 52.09)"><tspan class="h" x="0" y="0">B</tspan><tspan x="37.96" y="0">eer</tspan></text>
  <text class="b" transform="translate(99.74 98.83)"><tspan x="0" y="0">Rou</tspan><tspan class="i" x="103.81" y="0">t</tspan><tspan class="g" x="125.25" y="0">e</tspan></text>
  <path class="d" d="M94.3,62.8c-2.44,0-4.41,1.98-4.41,4.41h0v9.41c0,8.62-6.98,15.61-15.6,15.61-8.62,0-15.61-6.98-15.61-15.6h0v-40.05c.01-13.49-10.92-24.44-24.41-24.46-13.49-.01-24.44,10.92-24.46,24.41,0,.02,0,.03,0,.05v20.81c0,2.44,1.99,4.41,4.42,4.4,2.43,0,4.4-1.97,4.4-4.4v-20.81c-.01-8.62,6.97-15.61,15.58-15.62,8.62-.01,15.61,6.97,15.62,15.58,0,.01,0,.03,0,.04v40.04c0,13.49,10.94,24.43,24.43,24.43s24.43-10.94,24.43-24.43v-9.41c0-2.44-1.98-4.41-4.41-4.41h0Z"/>
  <path class="d" d="M14.22,72.61c-7.86,0-14.22,6.37-14.22,14.23,0,7.86,6.37,14.22,14.23,14.22,7.86,0,14.22-6.37,14.22-14.23,0-7.85-6.37-14.22-14.23-14.23Z"/>
  <g>
    <path class="f" d="M108.38,13.5c-4.1-3.6-9.6-5.16-14.98-4.25-5.38-.91-10.88.65-14.98,4.25-3.98,3.76-6.93,10.34-5.76,15.31.74.21,1.5.35,2.26.4h0c-1.18,4.25-.49,8.8,1.89,12.51.93-.13,1.84-.34,2.73-.64h0c.7,3.9,2.65,7.46,5.55,10.16.61-.4,1.19-.84,1.74-1.32.97,3.75,3.32,6.99,6.57,9.08,3.26-2.09,5.6-5.34,6.57-9.08v-.02c.56.49,1.15.94,1.77,1.34,2.89-2.7,4.83-6.26,5.52-10.15h0c.88.3,1.79.51,2.72.64,2.38-3.71,3.07-8.26,1.89-12.51h0c.77-.05,1.52-.19,2.26-.4,1.17-4.96-1.78-11.55-5.76-15.31Z"/>
    <path class="e" d="M93.4,60c-.19,0-.37-.05-.53-.15-3.48-2.22-5.98-5.68-7.01-9.67-.14-.53.17-1.08.71-1.22.53-.14,1.08.17,1.22.71.85,3.29,2.83,6.18,5.61,8.14,1.7-1.19,3.11-2.75,4.13-4.55.27-.48.89-.65,1.36-.37.48.27.65.89.37,1.36-1.29,2.27-3.13,4.2-5.34,5.6-.16.1-.34.16-.53.16Z"/>
    <path class="e" d="M85.09,52.23c-.24,0-.48-.09-.66-.25-3.07-2.84-5.13-6.6-5.87-10.71-.11-.54.24-1.07.78-1.18s1.07.24,1.18.78c.62,3.42,2.25,6.58,4.66,9.08.33-.24.66-.51.98-.79,1.74-1.57,3.15-3.47,4.15-5.6.21-.51.79-.76,1.3-.55.51.21.76.79.55,1.3-.01.04-.03.07-.05.1-1.11,2.37-2.69,4.49-4.64,6.24-.58.51-1.2.98-1.85,1.4-.16.1-.35.16-.54.16Z"/>
    <path class="e" d="M76.81,42.72c-.34,0-.65-.17-.84-.45-2.54-3.95-3.28-8.79-2.02-13.32.14-.53.69-.85,1.22-.71.53.14.85.69.71,1.22-1.04,3.76-.53,7.78,1.42,11.16.65-.12,1.28-.29,1.91-.5,3.26-1.13,6.01-3.37,7.8-6.32.26-.49.86-.67,1.35-.41s.67.86.41,1.35c-.02.04-.04.07-.07.11-2.03,3.35-5.17,5.88-8.86,7.16-.95.32-1.92.55-2.91.69-.04,0-.08.01-.13.01Z"/>
    <path class="e" d="M101.75,52.23c-.19,0-.38-.05-.54-.16-.66-.43-1.29-.91-1.89-1.43-3.01-2.76-5.14-6.34-6.13-10.3-.16-.53.14-1.09.67-1.24.53-.16,1.09.14,1.24.67,0,.02.01.04.01.05.89,3.58,2.81,6.81,5.52,9.31.33.29.67.57,1.01.81,2.41-2.5,4.02-5.66,4.64-9.07.11-.54.64-.89,1.18-.78s.89.64.78,1.18c-.74,4.11-2.79,7.86-5.84,10.7-.18.16-.42.25-.66.25Z"/>
    <path class="e" d="M109.98,42.72s-.09,0-.13,0c-.99-.13-1.96-.36-2.9-.69-3.7-1.28-6.84-3.82-8.87-7.17-.32-.45-.21-1.08.24-1.39s1.08-.21,1.39.24c.02.03.05.07.07.11,1.79,2.95,4.55,5.19,7.81,6.32.62.21,1.26.38,1.9.5,1.95-3.38,2.46-7.4,1.42-11.16-.14-.53.18-1.08.71-1.22s1.08.18,1.22.71c1.25,4.52.52,9.37-2.03,13.31-.19.28-.5.45-.83.45Z"/>
    <path class="e" d="M93.4,41.6c-.19,0-.37-.05-.53-.15-.27-.17-.54-.35-.8-.54-2.18-1.59-3.94-3.7-5.1-6.13-1.13-2.36-1.72-4.94-1.71-7.55,0-.43.02-.85.05-1.27.04-.55.52-.97,1.07-.93.55.04.97.52.93,1.07-.03.37-.04.75-.04,1.13,0,2.31.51,4.6,1.51,6.68,1.02,2.14,2.55,3.98,4.46,5.38l.17.12.17-.12c1.91-1.39,3.44-3.24,4.46-5.38.62-1.29,1.05-2.66,1.29-4.07.09-.54.61-.91,1.15-.82s.91.61.82,1.15h0c-.27,1.59-.76,3.14-1.46,4.6-1.16,2.44-2.91,4.54-5.09,6.13-.27.19-.54.37-.81.55-.16.1-.34.15-.53.15Z"/>
    <path class="e" d="M75.94,30.25c-.37,0-.74-.01-1.1-.04-.84-.06-1.66-.2-2.47-.43-.34-.1-.61-.38-.69-.73-1.32-5.6,2.12-12.57,6.04-16.27,4.33-3.84,10.18-5.49,15.88-4.5.54.12.87.66.75,1.2-.12.53-.64.86-1.17.76-5.06-.84-10.23.63-14.09,4-3.41,3.23-6.33,9.14-5.58,13.77.49.1.98.17,1.48.21,3.82.14,7.58-.92,10.76-3.03.76-.49,1.47-1.04,2.13-1.66.79-.75,1.52-1.57,2.17-2.45.33-.44.96-.53,1.4-.2.44.33.53.96.2,1.4-.72.97-1.52,1.87-2.4,2.7-.75.69-1.55,1.32-2.41,1.88-3.25,2.13-7.03,3.3-10.91,3.39Z"/>
    <path class="e" d="M110.85,30.25c-3.88-.09-7.66-1.27-10.91-3.39-.85-.55-1.66-1.18-2.4-1.88-2.19-2.08-3.92-4.6-5.07-7.4-.59-1.43-.98-2.94-1.15-4.48-.06-.55.35-1.04.9-1.1.55-.06,1.04.35,1.09.9.15,1.35.49,2.67,1.01,3.92,1.04,2.53,2.6,4.81,4.58,6.7.66.61,1.37,1.17,2.13,1.66,3.18,2.11,6.94,3.17,10.76,3.03.5-.04.99-.11,1.48-.21.75-4.62-2.17-10.54-5.59-13.77-3.86-3.37-9.03-4.84-14.09-4-.54.12-1.07-.21-1.2-.75s.21-1.07.75-1.2c.01,0,.02,0,.03,0,5.7-.99,11.54.66,15.88,4.5,3.92,3.7,7.37,10.66,6.04,16.27-.08.35-.35.63-.69.73-.81.23-1.63.38-2.47.44-.36.03-.73.04-1.1.04Z"/>
    <path class="e" d="M93.4,10c-.46,0-.86-.31-.97-.76-.22-.86-.38-1.73-.5-2.61-2.21-.65-4.53-2.26-4.53-5.63,0-.55.45-1,1-1s1,.45,1,1c-.04,1.56.93,2.97,2.41,3.48-.03-1.16.31-2.3.96-3.26.63-.8,1.61-1.26,2.63-1.22,1.7-.03,3.11,1.32,3.14,3.02,0,.07,0,.14,0,.21,0,.97-.38,1.89-1.05,2.59-.93.9-2.21,1.33-3.49,1.17.09.56.22,1.15.37,1.77.13.54-.19,1.08-.73,1.21-.08.02-.16.03-.24.03ZM93.8,4.97c.33.04.56.04.6.04.61.04,1.21-.17,1.66-.59.31-.32.48-.74.48-1.18.06-.62-.4-1.17-1.03-1.23-.04,0-.07,0-.11,0-.41-.04-.81.13-1.06.45-.44.76-.63,1.64-.54,2.51Z"/>
  </g>
</svg>